<svg viewBox="0 0 560.42 554.46" xmlns="http://www.w3.org/2000/svg" xmlns:xlink="http://www.w3.org/1999/xlink" id="Слой_1" overflow="hidden"><defs></defs><g id="surface1"><path d="M45.19 910.23 280.19 910.23 280.19 891.74 45.19 891.74C30.19 891.74 18.08 879.33 18.08 864.02L18.08 457.42C18.08 442.1 30.22 429.7 45.19 429.7L442.91 429.7C457.91 429.7 470.03 442.1 470.03 457.42L470.03 670 488.11 670 488.11 457.42C488.11 431.91 467.87 411.24 442.91 411.21L45.19 411.21C20.25 411.24 0 431.91 0 457.42L0 864C0 889.52 20.25 910.19 45.19 910.23Z" fill="#FFFFFF" transform="matrix(1 0 0 1 0 -411.21)"/><path d="M36.16 448.18 54.23 448.18 54.23 466.66 36.16 466.66Z" fill="#FFFFFF" transform="matrix(1 0 0 1 0 -411.21)"/><path d="M72.31 448.18 90.39 448.18 90.39 466.66 72.31 466.66Z" fill="#FFFFFF" transform="matrix(1 0 0 1 0 -411.21)"/><path d="M108.47 448.18 126.55 448.18 126.55 466.66 108.47 466.66Z" fill="#FFFFFF" transform="matrix(1 0 0 1 0 -411.21)"/><path d="M36.16 485.14 452 485.14 452 503.63 36.16 503.63Z" fill="#FFFFFF" transform="matrix(1 0 0 1 0 -411.21)"/><path d="M129.2 524.81 106.2 548.29C86.8146 535.145 60.5664 539.213 46.07 557.61 31.3447 576.126 32.6282 602.69 49.07 619.7 65.3602 636.52 91.8822 637.882 109.81 622.82 127.889 607.553 131.823 581.237 119 561.35L142 537.88ZM81.35 614.51C66.35 614.51 54.23 602.1 54.23 586.79 54.23 571.48 66.38 559.07 81.35 559.07 85.3949 559.083 89.382 560.031 93 561.84L75 580.25 87.78 593.32 105.78 574.92C107.549 578.628 108.475 582.682 108.49 586.79 108.47 602.1 96.33 614.51 81.35 614.51Z" fill="#FFFFFF" transform="matrix(1 0 0 1 0 -411.21)"/><path d="M153.67 559.07 307.33 559.07 307.33 577.55 153.67 577.55Z" fill="#FFFFFF" transform="matrix(1 0 0 1 0 -411.21)"/><path d="M153.67 596 216.94 596 216.94 614.48 153.67 614.48Z" fill="#FFFFFF" transform="matrix(1 0 0 1 0 -411.21)"/><path d="M235 596 361.56 596 361.56 614.48 235 614.48Z" fill="#FFFFFF" transform="matrix(1 0 0 1 0 -411.21)"/><path d="M325.41 559.07 415.8 559.07 415.8 577.55 325.41 577.55Z" fill="#FFFFFF" transform="matrix(1 0 0 1 0 -411.21)"/><path d="M129.2 635.7 106.2 659.18C86.8146 646.035 60.5664 650.103 46.07 668.5 31.3403 687.015 32.6239 713.582 49.07 730.59 65.3602 747.41 91.8822 748.772 109.81 733.71 127.893 718.445 131.828 692.126 119 672.24L142 648.77ZM81.35 725.41C66.35 725.41 54.23 712.99 54.23 697.68 54.23 682.37 66.38 670 81.35 670 85.3923 669.996 89.3803 670.93 93 672.73L75 691.14 87.78 704.21 105.78 685.81C107.549 689.518 108.475 693.572 108.49 697.68 108.47 713 96.33 725.41 81.35 725.41Z" fill="#FFFFFF" transform="matrix(1 0 0 1 0 -411.21)"/><path d="M153.67 670 307.33 670 307.33 688.48 153.67 688.48Z" fill="#FFFFFF" transform="matrix(1 0 0 1 0 -411.21)"/><path d="M153.67 706.92 216.94 706.92 216.94 725.41 153.67 725.41Z" fill="#FFFFFF" transform="matrix(1 0 0 1 0 -411.21)"/><path d="M235 706.92 307.31 706.92 307.31 725.41 235 725.41Z" fill="#FFFFFF" transform="matrix(1 0 0 1 0 -411.21)"/><path d="M325.41 670 361.56 670 361.56 688.48 325.41 688.48Z" fill="#FFFFFF" transform="matrix(1 0 0 1 0 -411.21)"/><path d="M129.2 746.59 106.2 770.07C86.8146 756.925 60.5664 760.993 46.07 779.39 31.3403 797.905 32.6239 824.472 49.07 841.48 65.3624 858.295 91.8805 859.657 109.81 844.6 127.889 829.333 131.823 803.017 119 783.13L142 759.66ZM81.35 836.3C66.35 836.3 54.23 823.88 54.23 808.57 54.23 793.26 66.38 780.85 81.35 780.85 85.3955 780.858 89.3837 781.807 93 783.62L75 802 87.74 815.1 105.74 796.7C107.509 800.408 108.435 804.462 108.45 808.57 108.47 823.88 96.33 836.3 81.35 836.3Z" fill="#FFFFFF" transform="matrix(1 0 0 1 0 -411.21)"/><path d="M153.67 780.85 271.17 780.85 271.17 799.34 153.67 799.34Z" fill="#FFFFFF" transform="matrix(1 0 0 1 0 -411.21)"/><path d="M153.67 817.81 216.94 817.81 216.94 836.3 153.67 836.3Z" fill="#FFFFFF" transform="matrix(1 0 0 1 0 -411.21)"/><path d="M235 817.81 271.15 817.81 271.15 836.3 235 836.3Z" fill="#FFFFFF" transform="matrix(1 0 0 1 0 -411.21)"/><path d="M424.84 965.67C499.72 965.67 560.42 903.61 560.42 827.06 560.42 750.51 499.72 688.44 424.84 688.44 349.96 688.44 289.25 750.5 289.25 827.06 289.25 903.62 350 965.58 424.84 965.67ZM424.84 706.92C489.73 706.92 542.35 760.71 542.35 827.06 542.35 893.41 489.73 947.19 424.84 947.19 359.95 947.19 307.33 893.4 307.33 827.06 307.33 760.72 360 707 424.84 706.92Z" fill="#FFFFFF" transform="matrix(1 0 0 1 0 -411.21)"/><path d="M369.7 832.16 353.52 840.42 371.6 877.42C372.865 880.07 375.344 881.936 378.24 882.42 378.703 882.495 379.171 882.535 379.64 882.54 382.052 882.537 384.359 881.56 386.04 879.83L494.5 768.9 481.72 755.84 382.12 857.66Z" fill="#FFFFFF" transform="matrix(1 0 0 1 0 -411.21)"/></g></svg>