<svg viewBox="0 0 494.9 490.22" xmlns="http://www.w3.org/2000/svg" xmlns:xlink="http://www.w3.org/1999/xlink" id="Layer_1" overflow="hidden"><defs></defs><path d="M261.2 297.34C257.886 297.34 255.2 300.026 255.2 303.34 255.342 320.983 248.472 337.961 236.1 350.54 223.77 363.185 206.862 370.324 189.2 370.34 171.557 370.482 154.579 363.612 142 351.24 129.355 338.91 122.216 322.001 122.2 304.34 122.058 286.697 128.928 269.719 141.3 257.14 153.63 244.495 170.539 237.356 188.2 237.34 191.514 237.34 194.2 234.654 194.2 231.34 194.2 228.026 191.514 225.34 188.2 225.34 144.813 225.584 109.839 260.954 110.083 304.341 110.327 347.728 145.697 382.702 189.084 382.457 232.471 382.213 267.445 346.844 267.201 303.457 267.201 303.418 267.2 303.379 267.2 303.34 267.2 300.026 264.514 297.34 261.2 297.34Z" fill="#FFFFFF" transform="matrix(1 0 0 1 0 -2.34)"/><path d="M363.4 337.74 340.3 328.14C337.118 327.215 333.789 329.045 332.864 332.227 332.084 334.911 333.26 337.777 335.7 339.14L358.8 348.74C363.98 350.867 366.456 356.791 364.328 361.972 364.319 361.994 364.31 362.017 364.3 362.04L353.9 387.14C351.795 392.311 345.895 394.797 340.724 392.691 340.683 392.675 340.641 392.657 340.6 392.64L317.5 383C314.854 381.894 311.795 382.816 310.2 385.2 299.581 401.119 285.919 414.781 270 425.4 267.616 426.995 266.694 430.054 267.8 432.7L277.4 455.8C278.401 458.304 278.401 461.096 277.4 463.6 276.394 466.107 274.407 468.094 271.9 469.1L246.7 479.5C244.196 480.499 241.404 480.499 238.9 479.5 236.393 478.494 234.406 476.507 233.4 474L223.8 450.9C222.674 448.289 219.898 446.798 217.1 447.3 198.324 451.1 178.976 451.1 160.2 447.3 157.387 446.704 154.555 448.226 153.5 450.9L143.9 474C141.773 479.18 135.849 481.656 130.668 479.528 130.646 479.519 130.623 479.51 130.6 479.5L105.5 469.1C100.32 466.973 97.8444 461.049 99.9716 455.868 99.981 455.846 99.9905 455.823 100 455.8L109.6 432.7C110.706 430.054 109.784 426.995 107.4 425.4 91.481 414.781 77.8189 401.119 67.2 385.2 65.6052 382.816 62.5464 381.894 59.9 383L36.8 392.6C34.2961 393.599 31.5039 393.599 29 392.6 26.4931 391.594 24.5062 389.607 23.5 387.1L13.1 361.9C12.1005 359.396 12.1005 356.604 13.1 354.1 14.1062 351.593 16.0931 349.606 18.6 348.6L41.7 339C44.3106 337.874 45.8019 335.098 45.3 332.3 41.55 313.519 41.55 294.181 45.3 275.4 45.8961 272.587 44.3744 269.755 41.7 268.7L18.5 259.2C13.3196 257.073 10.8444 251.149 12.9716 245.968 12.981 245.946 12.9905 245.923 13 245.9L23.4 220.8C25.5272 215.62 31.4512 213.144 36.6316 215.272 36.6545 215.281 36.6772 215.29 36.7 215.3L59.8 224.9C62.4464 226.006 65.5052 225.084 67.1 222.7 77.7189 206.781 91.381 193.119 107.3 182.5 109.684 180.905 110.606 177.846 109.5 175.2L99.9 152.1C98.9005 149.596 98.9005 146.804 99.9 144.3 100.906 141.793 102.893 139.806 105.4 138.8L130.6 128.4C133.104 127.399 135.896 127.399 138.4 128.4 140.907 129.406 142.894 131.393 143.9 133.9L153.5 157C155.116 159.893 158.771 160.928 161.664 159.313 164.104 157.95 165.28 155.083 164.5 152.4L154.9 129.3C152.66 123.86 148.34 119.54 142.9 117.3 137.46 115.033 131.34 115.033 125.9 117.3L100.7 127.7C95.2599 129.94 90.9398 134.26 88.7 139.7 86.3995 145.133 86.3995 151.267 88.7 156.7L96.4 175.3C82.2032 185.398 69.7982 197.803 59.7 212L41.1 204.3C35.6668 201.999 29.5332 201.999 24.1 204.3 18.6599 206.54 14.3398 210.86 12.1 216.3L1.7 241.44C-2.97792 252.762 2.38984 265.734 13.7 270.44L32.3 278.14C29.3999 295.318 29.3999 312.862 32.3 330.04L13.7 337.74C8.32159 339.951 4.06574 344.243 1.9 349.64-0.400519 355.073-0.400519 361.207 1.9 366.64L12.3 391.84C14.5398 397.28 18.8599 401.6 24.3 403.84 29.7332 406.141 35.8668 406.141 41.3 403.84L59.9 396.14C69.9982 410.337 82.4032 422.742 96.6 432.84L88.8 451.44C84.1221 462.762 89.4898 475.734 100.8 480.44L125.9 490.84C137.222 495.518 150.194 490.15 154.9 478.84L162.6 460.24C179.778 463.14 197.322 463.14 214.5 460.24L222.2 478.84C224.44 484.28 228.76 488.6 234.2 490.84 239.633 493.141 245.767 493.141 251.2 490.84L276.4 480.44C281.84 478.2 286.16 473.88 288.4 468.44 290.701 463.007 290.701 456.873 288.4 451.44L280.7 432.84C294.897 422.742 307.302 410.337 317.4 396.14L336 403.84C341.433 406.141 347.567 406.141 353 403.84 358.44 401.6 362.76 397.28 365 391.84L375.4 366.74C380.078 355.418 374.71 342.446 363.4 337.74Z" fill="#FFFFFF" transform="matrix(1 0 0 1 0 -2.34)"/><path d="M350.3 90.74C319.262 90.74 294.1 115.902 294.1 146.94 294.1 177.978 319.262 203.14 350.3 203.14 381.338 203.14 406.5 177.978 406.5 146.94 406.472 115.913 381.327 90.7676 350.3 90.74ZM350.3 191.04C325.889 191.04 306.1 171.251 306.1 146.84 306.1 122.429 325.889 102.64 350.3 102.64 374.711 102.64 394.5 122.429 394.5 146.84 394.472 171.233 374.693 190.994 350.3 191Z" fill="#FFFFFF" transform="matrix(1 0 0 1 0 -2.34)"/><path d="M477.1 119.24 463.8 119.24C461.003 107.586 456.379 96.4485 450.1 86.24L459.5 76.84C466.431 69.8696 466.431 58.6104 459.5 51.64L445.5 37.64C438.53 30.7092 427.27 30.7092 420.3 37.64L410.9 47C400.67 40.7626 389.539 36.1415 377.9 33.3L377.9 20.14C377.878 10.3185 369.922 2.362 360.1 2.34L340.3 2.34C330.478 2.362 322.522 10.3185 322.5 20.14L322.5 33.44C310.846 36.2375 299.709 40.8613 289.5 47.14L280.1 37.74C273.13 30.8092 261.87 30.8092 254.9 37.74L240.9 51.74C233.969 58.7104 233.969 69.9697 240.9 76.94L250.3 86.34C244.063 96.5696 239.442 107.701 236.6 119.34L223.3 119.34C213.478 119.362 205.522 127.318 205.5 137.14L205.5 156.94C205.522 166.762 213.478 174.718 223.3 174.74L236.6 174.74C239.397 186.394 244.021 197.531 250.3 207.74L240.9 217.14C233.969 224.11 233.969 235.37 240.9 242.34L254.9 256.34C261.87 263.271 273.13 263.271 280.1 256.34L289.5 246.94C299.73 253.177 310.861 257.798 322.5 260.64L322.5 273.94C322.522 283.762 330.478 291.718 340.3 291.74L360.1 291.74C369.922 291.718 377.878 283.762 377.9 273.94L377.9 260.64C389.554 257.843 400.691 253.219 410.9 246.94L420.3 256.34C427.27 263.271 438.53 263.271 445.5 256.34L459.5 242.34C466.431 235.37 466.431 224.11 459.5 217.14L450.1 207.74C456.337 197.51 460.958 186.379 463.8 174.74L477.1 174.74C486.922 174.718 494.878 166.762 494.9 156.94L494.9 137.14C494.922 127.284 486.956 119.273 477.1 119.24ZM477 162.54 458.8 162.54C455.941 162.53 453.472 164.539 452.9 167.34 450.257 180.787 444.953 193.571 437.3 204.94 435.684 207.314 435.978 210.501 438 212.54L450.9 225.44C452.001 226.518 452.615 227.999 452.6 229.54 452.596 231.077 451.985 232.551 450.9 233.64L436.9 247.64C435.822 248.741 434.341 249.355 432.8 249.34 431.263 249.336 429.789 248.725 428.7 247.64L415.8 234.74C413.761 232.718 410.574 232.424 408.2 234.04 396.822 241.676 384.042 246.978 370.6 249.64 367.799 250.212 365.79 252.681 365.8 255.54L365.8 273.74C365.8 276.943 363.203 279.54 360 279.54L340.2 279.54C336.997 279.54 334.4 276.943 334.4 273.74L334.4 255.44C334.41 252.581 332.401 250.112 329.6 249.54 316.153 246.897 303.369 241.593 292 233.94 289.626 232.324 286.439 232.618 284.4 234.64L271.5 247.54C269.242 249.804 265.576 249.81 263.312 247.552 263.308 247.548 263.304 247.544 263.3 247.54L249.3 233.54C248.199 232.462 247.585 230.981 247.6 229.44 247.604 227.903 248.215 226.429 249.3 225.34L262.2 212.44C264.222 210.401 264.516 207.214 262.9 204.84 255.264 193.462 249.962 180.682 247.3 167.24 246.728 164.439 244.259 162.43 241.4 162.44L223.2 162.44C219.997 162.44 217.4 159.843 217.4 156.64L217.4 136.84C217.4 133.637 219.997 131.04 223.2 131.04L241.4 131.04C244.259 131.05 246.728 129.041 247.3 126.24 249.943 112.793 255.247 100.009 262.9 88.64 264.516 86.2656 264.222 83.0793 262.2 81.04L249.3 68.14C248.199 67.0618 247.585 65.5811 247.6 64.04 247.604 62.5026 248.215 61.0291 249.3 59.94L263.3 45.94C265.558 43.6756 269.224 43.6704 271.488 45.9283 271.492 45.9322 271.496 45.9361 271.5 45.94L284.4 58.84C286.439 60.8621 289.626 61.1556 292 59.54 303.378 51.9043 316.158 46.602 329.6 43.94 332.401 43.3682 334.41 40.8991 334.4 38.04L334.4 20.14C334.4 16.9367 336.997 14.34 340.2 14.34L360 14.34C363.203 14.34 365.8 16.9367 365.8 20.14L365.8 38.34C365.79 41.1991 367.799 43.6682 370.6 44.24 384.047 46.8835 396.831 52.1873 408.2 59.84 410.562 61.4315 413.727 61.0939 415.7 59.04L428.6 46.14C429.678 45.0388 431.159 44.4248 432.7 44.44 434.237 44.4439 435.711 45.0549 436.8 46.14L450.8 60.14C451.901 61.2182 452.515 62.6989 452.5 64.24 452.496 65.7774 451.885 67.2509 450.8 68.34L437.9 81.24C435.878 83.2793 435.584 86.4656 437.2 88.84 444.836 100.218 450.138 112.998 452.8 126.44 453.372 129.241 455.841 131.25 458.7 131.24L476.9 131.24C480.103 131.24 482.7 133.837 482.7 137.04L482.7 156.74 482.8 156.74C482.8 159.943 480.203 162.54 477 162.54Z" fill="#FFFFFF" transform="matrix(1 0 0 1 0 -2.34)"/></svg>