<svg viewBox="0 0 12.87 15.08" xmlns="http://www.w3.org/2000/svg" xmlns:xlink="http://www.w3.org/1999/xlink" id="Capa_1" overflow="hidden"><defs></defs><path d="M5.18 22.2 6.23 22.38C6.14943 22.1268 6.09908 21.865 6.08 21.6L7.08 21.73 7.08 22.3 9.63 22.3 9.63 21.9 10.08 21.9 10.08 22.3 12.66 22.3 12.66 21.75 13.47 21.63C13.4653 21.8284 13.4419 22.026 13.4 22.22L14.22 22.07C14.04 19.98 13.22 17.16 9.72 17.16 9.271 17.1427 8.82209 17.1967 8.39 17.32 8.14 17.43 8.1 17.67 7.93 17.72 7.76 17.77 7.52 17.72 7.38 17.83 5.99306 18.5207 5.12017 19.9406 5.13 21.49ZM9.35 22 7.35 22 7.35 21 9.35 21ZM12.35 22 10.35 22 10.35 21 12.35 21ZM6.09 21C7.20754 20.963 8.15421 20.1651 8.38 19.07 9.69 20.07 11.55 20.16 13.09 20.29 13.28 20.37 13.43 20.74 13.47 21.23L12.66 21.35 12.66 20.81 10.08 20.81 10.08 21.38 9.63 21.38 9.63 20.81 7.06 20.81 7.06 21.34 6.06 21.2Z" fill="#FFFFFF" transform="translate(-3.02 -17.16)"/><path d="M15.89 27.14C15.9026 26.6778 15.7083 26.2341 15.36 25.93L15.36 22.3 9.53 23.18 3.7 22.3 3.7 25.84C3.25018 26.1162 2.983 26.6124 3 27.14 2.98129 27.6657 3.23932 28.1628 3.68 28.45L3.68 31.35 9.51 32.24 15.34 31.35 15.34 28.35C15.6981 28.0515 15.9006 27.6061 15.89 27.14ZM9.26 31.69 4.26 30.92 4.26 28.57C5.04701 28.3492 5.50604 27.5323 5.28528 26.7453 5.14581 26.248 4.75723 25.8595 4.26 25.72L4.26 22.89 9.26 23.65ZM14.83 30.92 9.83 31.69 9.83 23.69 14.83 22.93 14.83 25.76 14.74 25.76C13.9475 25.9361 13.4478 26.7213 13.6239 27.5139 13.7477 28.071 14.1828 28.5062 14.74 28.63L14.83 28.63Z" fill="#FFFFFF" transform="translate(-3.02 -17.16)"/></svg>