<svg viewBox="0 0 60 60" xmlns="http://www.w3.org/2000/svg" xmlns:xlink="http://www.w3.org/1999/xlink" id="Capa_1" overflow="hidden"><g><path d="M10 25.5 23 25.5C23.6 25.5 24 25.1 24 24.5 24 23.9 23.6 23.5 23 23.5L10 23.5C9.4 23.5 9 23.9 9 24.5 9 25.1 9.4 25.5 10 25.5Z" fill="#FFFFFF"/><path d="M36 29.5 10 29.5C9.4 29.5 9 29.9 9 30.5 9 31.1 9.4 31.5 10 31.5L36 31.5C36.6 31.5 37 31.1 37 30.5 37 29.9 36.6 29.5 36 29.5Z" fill="#FFFFFF"/><path d="M36 35.5 10 35.5C9.4 35.5 9 35.9 9 36.5 9 37.1 9.4 37.5 10 37.5L36 37.5C36.6 37.5 37 37.1 37 36.5 37 35.9 36.6 35.5 36 35.5Z" fill="#FFFFFF"/><path d="M54.1 2.5 19.9 2.5C16.6 2.5 14 5.2 14 8.4L14 13.5 5.9 13.5C2.6 13.5-1.77636e-15 16.2-1.77636e-15 19.4L-1.77636e-15 40.5C-1.77636e-15 43.8 2.7 46.4 5.9 46.4L12 46.4 12 56.4C12 56.8 12.3 57.2 12.6 57.3 12.7 57.3 12.8 57.4 13 57.4 13.3 57.4 13.5 57.3 13.7 57.1L23.4 46.4 40 46.3C43.3 46.3 45.9 43.6 45.9 40.4L45.9 40.3 51.2 46.1C51.4 46.3 51.7 46.4 51.9 46.4 52 46.4 52.1 46.4 52.3 46.3 52.7 46.2 52.9 45.8 52.9 45.4L52.9 35.4 54 35.4C57.3 35.4 59.9 32.7 59.9 29.5L59.9 8.5C60 5.2 57.3 2.5 54.1 2.5ZM44 40.5C44 42.7 42.2 44.4 40.1 44.4L23 44.5C22.7 44.5 22.5 44.6 22.3 44.8L14 53.9 14 45.5C14 44.9 13.6 44.5 13 44.5L5.9 44.5C3.7 44.5 2 42.7 2 40.6L2 19.5C2 17.3 3.8 15.6 5.9 15.6L15 15.6 15 15.6C15 15.6 15 15.6 15 15.6L40.1 15.5C42.3 15.5 44 17.3 44 19.4L44 37.8 44 40.5ZM58 29.6C58 31.8 56.2 33.5 54.1 33.5L52 33.5C51.4 33.5 51 33.9 51 34.5L51 42.9 46 37.4 46 19.4C46 16.1 43.3 13.5 40.1 13.5L16 13.5 16 8.4C16 6.2 17.8 4.5 19.9 4.5L54 4.6C54 4.6 54 4.6 54 4.6 56.2 4.6 57.9 6.4 57.9 8.5L58 29.6 58 29.6Z" fill="#FFFFFF"/></g></svg>