<svg viewBox="0 0 512 512" xmlns="http://www.w3.org/2000/svg" xmlns:xlink="http://www.w3.org/1999/xlink" id="Capa_1" overflow="hidden"><g><g><path d="M274.8 213.9 126.7 213.9C122.6 213.9 119.2 217.3 119.2 221.4 119.2 225.5 122.6 228.9 126.7 228.9L274.9 228.9C279 228.9 282.4 225.5 282.4 221.4 282.3 217.3 279 213.9 274.8 213.9Z" stroke="#FFFFFF" stroke-width="3" stroke-miterlimit="10" fill="#FFFFFF"/></g></g><g><g><path d="M393.6 202.3C391.5 198.7 387 197.5 383.4 199.5L348.3 219.7 351.5 208C352.6 204 350.3 199.9 346.3 198.8 342.3 197.7 338.2 200 337.1 204L333 218.9C331.5 224.3 333.4 229.9 337.8 233.3 342 236.5 348.1 237.1 353 234.3L391 212.5C394.4 210.5 395.6 205.9 393.6 202.3Z" stroke="#FFFFFF" stroke-width="3" stroke-miterlimit="10" fill="#FFFFFF"/></g></g><g><g><path d="M274.8 271.1 126.7 271.1C122.6 271.1 119.2 274.5 119.2 278.6 119.2 282.7 122.6 286.1 126.7 286.1L274.9 286.1C279 286.1 282.4 282.7 282.4 278.6 282.3 274.4 279 271.1 274.8 271.1Z" stroke="#FFFFFF" stroke-width="3" stroke-miterlimit="10" fill="#FFFFFF"/></g></g><g><g><path d="M393.6 259.5C391.5 255.9 387 254.7 383.4 256.7L348.3 276.9 351.5 265.2C352.6 261.2 350.3 257.1 346.3 256 342.3 254.9 338.2 257.2 337.1 261.2L333 276.1C331.5 281.5 333.4 287.1 337.8 290.5 342 293.7 348.1 294.3 353 291.5L391 269.7C394.4 267.7 395.6 263.1 393.6 259.5Z" stroke="#FFFFFF" stroke-width="3" stroke-miterlimit="10" fill="#FFFFFF"/></g></g><g><g><path d="M274.8 328.3 126.7 328.3C122.6 328.3 119.2 331.7 119.2 335.8 119.2 339.9 122.6 343.3 126.7 343.3L274.9 343.3C279 343.3 282.4 339.9 282.4 335.8 282.3 331.6 279 328.3 274.8 328.3Z" stroke="#FFFFFF" stroke-width="3" stroke-miterlimit="10" fill="#FFFFFF"/></g></g><g><g><path d="M393.6 316.7C391.5 313.1 387 311.9 383.4 313.9L348.3 334.1 351.5 322.4C352.6 318.4 350.3 314.3 346.3 313.2 342.3 312.1 338.2 314.4 337.1 318.4L333 333.3C331.5 338.7 333.4 344.3 337.8 347.7 342.2 351.1 348.2 351.5 353 348.7L391 326.9C394.4 324.9 395.6 320.3 393.6 316.7Z" stroke="#FFFFFF" stroke-width="3" stroke-miterlimit="10" fill="#FFFFFF"/></g></g><g><g><path d="M274.8 385.4 126.7 385.4C122.6 385.4 119.2 388.8 119.2 392.9 119.2 397 122.6 400.4 126.7 400.4L274.9 400.4C279 400.4 282.4 397 282.4 392.9 282.4 388.8 279 385.4 274.8 385.4Z" stroke="#FFFFFF" stroke-width="3" stroke-miterlimit="10" fill="#FFFFFF"/></g></g><g><g><path d="M393.6 373.9C391.5 370.3 387 369.1 383.4 371.1L348.3 391.3 351.5 379.6C352.6 375.6 350.3 371.5 346.3 370.4 342.3 369.3 338.2 371.6 337.1 375.6L333 390.5C331.5 395.9 333.4 401.5 337.8 404.9 342.2 408.3 348.2 408.7 353 405.9L391 384.1C394.4 382 395.6 377.5 393.6 373.9Z" stroke="#FFFFFF" stroke-width="3" stroke-miterlimit="10" fill="#FFFFFF"/></g></g><g><g><path d="M413 0C413 0 206.4 0 206.3 0 204.3 0 202.4 0.8 201 2.2L69 134.2C67.6 135.6 66.8 137.6 66.8 139.5L66.8 415.8C66.8 419.9 70.2 423.3 74.3 423.3 78.4 423.3 81.8 419.9 81.8 415.8L81.8 147 176.9 147C193.5 147 207.5 136.1 212.2 121 213.3 117.5 213.9 113.7 213.9 110L213.9 15 413 15C422.5 15 430.2 22.7 430.2 32.2L430.2 133.8C430.2 137.9 433.6 141.3 437.7 141.3 441.8 141.3 445.2 137.9 445.2 133.8L445.2 32.2C445.2 14.4 430.7 0 413 0ZM198.8 110.1C198.8 122 188.8 132 176.9 132L92.4 132 198.8 25.6 198.8 110.1Z" stroke="#FFFFFF" stroke-width="3" stroke-miterlimit="10" fill="#FFFFFF"/></g></g><g><g><path d="M437.7 156.3C433.6 156.3 430.2 159.7 430.2 163.8L430.2 479.8C430.2 489.3 422.5 497 413 497L99 497C89.5 497 81.8 489.3 81.8 479.8L81.8 445.8C81.8 441.7 78.4 438.3 74.3 438.3 70.2 438.3 66.8 441.7 66.8 445.8L66.8 479.8C66.8 497.6 81.2 512 99 512L413 512C430.8 512 445.2 497.6 445.2 479.8L445.2 163.8C445.2 159.7 441.8 156.3 437.7 156.3Z" stroke="#FFFFFF" stroke-width="3" stroke-miterlimit="10" fill="#FFFFFF"/></g></g></svg>