<svg viewBox="0 0 512 512" xmlns="http://www.w3.org/2000/svg" xmlns:xlink="http://www.w3.org/1999/xlink" id="Layer_1" overflow="hidden"><g><g><g><path d="M375.5 315.7C375.5 311 371.7 307.2 367 307.2L315.8 307.2C311.1 307.2 307.3 311 307.3 315.7 307.3 320.4 311.1 324.2 315.8 324.2L367 324.2C371.6 324.3 375.5 320.4 375.5 315.7Z" stroke="#FFFFFF" stroke-width="2" stroke-miterlimit="10" fill="#FFFFFF"/><path d="M341.3 93.9 341.3 51.2C341.3 46.5 337.5 42.7 332.8 42.7 328.1 42.7 324.3 46.5 324.3 51.2L324.3 93.9C324.3 117.4 343.4 136.6 367 136.6L443.8 136.6 443.8 298.7C443.8 303.4 447.6 307.2 452.3 307.2 457 307.2 460.8 303.4 460.8 298.7L460.8 128C460.8 123.3 457 119.5 452.3 119.5L367 119.5C352.8 119.5 341.3 108 341.3 93.9Z" stroke="#FFFFFF" stroke-width="2" stroke-miterlimit="10" fill="#FFFFFF"/><path d="M366.9 204.8 298.6 204.8C293.9 204.8 290.1 208.6 290.1 213.3 290.1 218 293.9 221.8 298.6 221.8L366.9 221.8C371.6 221.8 375.4 218 375.4 213.3 375.5 208.6 371.6 204.8 366.9 204.8Z" stroke="#FFFFFF" stroke-width="2" stroke-miterlimit="10" fill="#FFFFFF"/><path d="M273.1 213.3C273.1 208.6 269.3 204.8 264.6 204.8L213.4 204.8C208.7 204.8 204.9 208.6 204.9 213.3 204.9 218 208.7 221.8 213.4 221.8L264.6 221.8C269.2 221.9 273.1 218 273.1 213.3Z" stroke="#FFFFFF" stroke-width="2" stroke-miterlimit="10" fill="#FFFFFF"/><path d="M213.3 256C208.6 256 204.8 259.8 204.8 264.5 204.8 269.2 208.6 273 213.3 273L230.4 273C235.1 273 238.9 269.2 238.9 264.5 238.9 259.8 235.1 256 230.4 256L213.3 256 213.3 256Z" stroke="#FFFFFF" stroke-width="2" stroke-miterlimit="10" fill="#FFFFFF"/><path d="M213.3 170.7 298.6 170.7C303.3 170.7 307.1 166.9 307.1 162.2 307.1 157.5 303.3 153.7 298.6 153.7L213.3 153.7C208.6 153.7 204.8 157.5 204.8 162.2 204.8 166.8 208.6 170.7 213.3 170.7Z" stroke="#FFFFFF" stroke-width="2" stroke-miterlimit="10" fill="#FFFFFF"/><path d="M264.5 273.1 349.8 273.1C354.5 273.1 358.3 269.3 358.3 264.6 358.3 259.9 354.5 256.1 349.8 256.1L264.5 256.1C259.8 256.1 256 259.9 256 264.6 256 269.3 259.8 273.1 264.5 273.1Z" stroke="#FFFFFF" stroke-width="2" stroke-miterlimit="10" fill="#FFFFFF"/><path d="M315.7 358.4C311 358.4 307.2 362.2 307.2 366.9 307.2 371.6 311 375.4 315.7 375.4L332.8 375.4C337.5 375.4 341.3 371.6 341.3 366.9 341.3 362.2 337.5 358.4 332.8 358.4L315.7 358.4Z" stroke="#FFFFFF" stroke-width="2" stroke-miterlimit="10" fill="#FFFFFF"/><path d="M281.6 307.2 213.3 307.2C208.6 307.2 204.8 311 204.8 315.7 204.8 320.4 208.6 324.2 213.3 324.2L281.6 324.2C286.3 324.2 290.1 320.4 290.1 315.7 290.1 311 286.3 307.2 281.6 307.2Z" stroke="#FFFFFF" stroke-width="2" stroke-miterlimit="10" fill="#FFFFFF"/><path d="M281.6 358.4 213.3 358.4C208.6 358.4 204.8 362.2 204.8 366.9 204.8 371.6 208.6 375.4 213.3 375.4L281.6 375.4C286.3 375.4 290.1 371.6 290.1 366.9 290.1 362.2 286.3 358.4 281.6 358.4Z" stroke="#FFFFFF" stroke-width="2" stroke-miterlimit="10" fill="#FFFFFF"/><path d="M484.8 351.5 467.7 334.4C454.6 321.3 434.6 321.3 421.5 334.4L309.7 446.2C308.1 447.8 307.2 450 307.2 452.2L307.2 503.4C307.2 508.1 311 511.9 315.7 511.9L366.9 511.9C369.2 511.9 371.3 511 372.9 509.4L484.7 397.6C498.3 384.1 498.3 365.1 484.8 351.5ZM410.5 369.6 424 383.1 349.9 457.2 336.4 443.7 410.5 369.6ZM324.3 494.9 324.3 455.8 363.4 494.9 324.3 494.9ZM375.5 482.9 362 469.4 436.1 395.3 449.6 408.8 375.5 482.9ZM472.7 385.6 461.7 396.6 422.6 357.5 433.6 346.5C440.3 339.8 448.9 339.7 455.7 346.5L472.8 363.6C479.6 370.5 479.6 378.7 472.7 385.6Z" stroke="#FFFFFF" stroke-width="2" stroke-miterlimit="10" fill="#FFFFFF"/><path d="M281.6 494.9 59.7 494.9C45.6 494.9 34.1 483.4 34.1 469.3L34.1 42.7C34.1 28.6 45.6 17.1 59.7 17.1L329.2 17.1 412 99.9C415.3 103.2 420.7 103.2 424.1 99.9 427.4 96.6 427.4 91.2 424.1 87.8L338.8 2.5C337.2 0.9 335 0 332.8 0L59.7 0C36.2 0 17.1 19.1 17.1 42.7L17.1 469.4C17.1 492.9 36.2 512.1 59.8 512.1L281.7 512.1C286.4 512.1 290.2 508.3 290.2 503.6 290.2 498.9 286.3 494.9 281.6 494.9Z" stroke="#FFFFFF" stroke-width="2" stroke-miterlimit="10" fill="#FFFFFF"/><path d="M281.6 409.6 213.3 409.6C208.6 409.6 204.8 413.4 204.8 418.1 204.8 422.8 208.6 426.6 213.3 426.6L281.6 426.6C286.3 426.6 290.1 422.8 290.1 418.1 290.1 413.4 286.3 409.6 281.6 409.6Z" stroke="#FFFFFF" stroke-width="2" stroke-miterlimit="10" fill="#FFFFFF"/><path d="M170.7 162.1C170.7 157.4 166.9 153.6 162.2 153.6L111 153.6C106.3 153.6 102.5 157.4 102.5 162.1L102.5 213.3C102.5 218 106.3 221.8 111 221.8L162.2 221.8C166.9 221.8 170.7 218 170.7 213.3L170.7 162.1ZM153.6 204.8 119.5 204.8 119.5 170.7 153.6 170.7 153.6 204.8Z" stroke="#FFFFFF" stroke-width="2" stroke-miterlimit="10" fill="#FFFFFF"/><path d="M110.9 426.7 162.1 426.7C166.8 426.7 170.6 422.9 170.6 418.2L170.6 367C170.6 362.3 166.8 358.5 162.1 358.5L110.9 358.5C106.2 358.5 102.4 362.3 102.4 367L102.4 418.2C102.4 422.8 106.2 426.7 110.9 426.7ZM119.5 375.5 153.6 375.5 153.6 409.6 119.5 409.6C119.5 409.6 119.5 375.5 119.5 375.5Z" stroke="#FFFFFF" stroke-width="2" stroke-miterlimit="10" fill="#FFFFFF"/><path d="M122 321.8C123.6 323.4 125.8 324.3 128 324.3 128.3 324.3 128.6 324.3 128.8 324.3 131.3 324.1 133.6 322.7 135.1 320.5L169.2 269.3C171.8 265.4 170.8 260.1 166.8 257.5 162.9 254.9 157.6 255.9 155 259.9L126.6 302.4 116.9 292.7C113.6 289.4 108.2 289.4 104.8 292.7 101.4 296 101.5 301.4 104.8 304.8L122 321.8Z" stroke="#FFFFFF" stroke-width="2" stroke-miterlimit="10" fill="#FFFFFF"/></g></g></g></svg>