<svg viewBox="0 0 512 512" xmlns="http://www.w3.org/2000/svg" xmlns:xlink="http://www.w3.org/1999/xlink" id="Capa_1" overflow="hidden"><g><g><path d="M477.9 8.5 34.1 8.5C15.3 8.5 0 23.9 0 42.7L0 324.3C0 329 3.8 332.8 8.5 332.8L503.4 332.8C508.1 332.8 511.9 329 511.9 324.3L511.9 42.7C512 23.9 496.7 8.5 477.9 8.5ZM494.9 315.7 17.1 315.7 17.1 42.7C17.1 33.3 24.8 25.6 34.2 25.6L477.9 25.6C487.3 25.6 495 33.3 495 42.7L495 315.7Z" fill="#FFFFFF"/></g></g><g><g><path d="M503.5 315.7 8.5 315.7C3.8 315.7 0 319.5 0 324.2L0 366.9C0 385.7 15.3 401 34.1 401L477.8 401C496.6 401 511.9 385.7 511.9 366.9L511.9 324.2C512 319.6 508.2 315.7 503.5 315.7ZM494.9 366.9C494.9 376.3 487.2 384 477.8 384L34.1 384C24.7 384 17 376.3 17 366.9L17 332.8 494.9 332.8 494.9 366.9 494.9 366.9Z" fill="#FFFFFF"/></g></g><g><g><path d="M281.6 349.9 230.4 349.9C225.7 349.9 221.9 353.7 221.9 358.4 221.9 363.1 225.7 366.9 230.4 366.9L281.6 366.9C286.3 366.9 290.1 363.1 290.1 358.4 290.1 353.7 286.3 349.9 281.6 349.9Z" fill="#FFFFFF"/></g></g><g><g><path d="M469.3 42.7 42.7 42.7C38 42.7 34.2 46.5 34.2 51.2L34.2 324.3C34.2 329 38 332.8 42.7 332.8L469.4 332.8C474.1 332.8 477.9 329 477.9 324.3L477.9 51.2C477.9 46.5 474 42.7 469.3 42.7ZM460.8 315.7 51.2 315.7 51.2 59.7 460.8 59.7 460.8 315.7 460.8 315.7Z" fill="#FFFFFF"/></g></g><g><g><path d="M366.9 452.3 145.1 452.3C131 452.3 119.5 463.8 119.5 477.9 119.5 492 131 503.5 145.1 503.5L367 503.5C381.1 503.5 392.6 492 392.6 477.9 392.6 463.8 381 452.3 366.9 452.3ZM366.9 486.4 145.1 486.4C140.4 486.4 136.6 482.6 136.6 477.9 136.6 473.2 140.4 469.4 145.1 469.4L367 469.4C371.7 469.4 375.5 473.2 375.5 477.9 375.5 482.6 371.6 486.4 366.9 486.4Z" fill="#FFFFFF"/></g></g><g><g><path d="M349.9 452.3C321.6 452.3 307.2 432.2 307.2 392.6 307.2 387.9 303.4 384.1 298.7 384.1L213.4 384.1C208.7 384.1 204.9 387.9 204.9 392.6 204.9 432.2 190.5 452.3 162.2 452.3 157.5 452.3 153.7 456.1 153.7 460.8 153.7 465.5 157.5 469.3 162.2 469.3L349.9 469.3C354.6 469.3 358.4 465.5 358.4 460.8 358.4 456.1 354.6 452.3 349.9 452.3ZM203.7 452.3C214.2 440.7 220.4 423.3 221.6 401.1L290.3 401.1C291.5 423.3 297.7 440.7 308.2 452.3L203.7 452.3Z" fill="#FFFFFF"/></g></g><g><g><path d="M407.8 260 387.2 239.4 398.7 227.9C400.8 225.8 401.7 222.7 400.9 219.8 400.2 216.9 398 214.6 395.1 213.7L309.8 188.1C306.8 187.2 303.5 188 301.3 190.2 299.1 192.4 298.3 195.7 299.2 198.7L324.8 284C325.7 286.9 328 289.1 330.9 289.8 333.8 290.5 336.9 289.7 339 287.6L351.1 275.5 371.7 296.1C373.3 297.7 375.5 298.6 377.7 298.6 379.9 298.6 382.1 297.7 383.7 296.1L407.8 272C411.1 268.7 411.1 263.3 407.8 260ZM377.6 278.1 358.8 259.3C356.6 257.1 353.8 256 350.9 256 348 256 345.2 257.1 343 259.3L336.8 265.5 320 209 376.5 225.9 369.9 232.5C368.1 234.3 367.1 236.7 367.1 239.3 367.1 241.9 368.1 244.3 369.9 246.1L389.7 265.9 377.6 278.1Z" fill="#FFFFFF"/></g></g><g><g><path d="M358.4 76.8 119.5 76.8C114.8 76.8 111 80.6 111 85.3L111 128C111 132.7 114.8 136.5 119.5 136.5L358.4 136.5C363.1 136.5 366.9 132.7 366.9 128L366.9 85.3C366.9 80.6 363.1 76.8 358.4 76.8ZM349.9 119.5 128 119.5 128 93.9 349.9 93.9 349.9 119.5Z" fill="#FFFFFF"/></g></g><g><g><path d="M221.9 170.7 153.6 170.7C148.9 170.7 145.1 174.5 145.1 179.2L145.1 213.3C145.1 218 148.9 221.8 153.6 221.8L221.9 221.8C226.6 221.8 230.4 218 230.4 213.3L230.4 179.2C230.4 174.5 226.6 170.7 221.9 170.7ZM213.3 204.8 162.1 204.8 162.1 187.7 213.3 187.7 213.3 204.8Z" fill="#FFFFFF"/></g></g><g><g><path d="M358.4 76.8 119.5 76.8C114.8 76.8 111 80.6 111 85.3L111 247.4C111 252.1 114.8 255.9 119.5 255.9L322.6 255.9C325.3 255.9 327.8 254.6 329.4 252.5 331 250.3 331.5 247.5 330.7 244.9L320 209 356 219.8C358.6 220.6 361.4 220.1 363.5 218.5 365.7 216.9 366.9 214.4 366.9 211.7L366.9 85.3C366.9 80.6 363.1 76.8 358.4 76.8ZM349.9 200.1 309.7 188.1C306.7 187.2 303.4 188 301.2 190.2 299 192.4 298.2 195.7 299.1 198.7L311.2 238.9 128 238.9 128 93.9 349.9 93.9 349.9 200.1Z" fill="#FFFFFF"/></g></g></svg>