<svg viewBox="0 0 512 512" xmlns="http://www.w3.org/2000/svg" xmlns:xlink="http://www.w3.org/1999/xlink" id="Capa_1" overflow="hidden"><g transform="matrix(1 0 0 1 0 -1)"><g><g><path d="M478 125.4C469.4 96.1 451.5 70.3 427 52 378.8 14.3 333.8-1.4 281.2 1.3 253.4 3.2 225.8 7.2 198.7 13.1 160.2 20.9 132.2 34.4 113.2 54.5 98.1 70.6 86.5 89.6 79 110.3 75.8 119.4 73.3 128.7 71.3 138.1L70.6 141.2C68.8 147.8 66.4 154.3 63.4 160.5 61.6 164.5 59.9 168.4 58.3 172.4 56.3 176.9 55.5 181.9 56 186.8 57.7 194.4 62.2 201.2 68.5 205.8 72.7 209.6 75.4 212.3 75.5 214.8 75.2 216.1 74.7 217.3 74 218.4 63.8 239.9 51.3 260.3 36.7 279.2 30.6 286.7 24.2 295.4 25.5 304.3 27.4 311 31.8 316.8 37.9 320.2 40.7 322.2 43.7 323.9 46.8 325.4 50.5 327.3 56.6 330.4 57.1 332.7 57.7 335.6 57.3 338.6 56.2 341.3 54.9 344 53.6 346.3 52.5 348.3 49.4 353.8 44.1 363.1 52 369.8 53.8 371.4 57 373.9 59.9 376.1 57.8 379.9 56.8 384.2 57.1 388.5 57.6 391.8 59.4 394.8 62.1 396.8 64 398.2 66 399.3 68.1 400.5 73.1 403.4 75.1 404.7 75.8 407.4 76.2 410.9 75.9 414.4 74.9 417.7 74.4 419.9 73.9 422.2 73.6 424.4 72.7 432.2 73.7 440 76.5 447.3 80.9 463.5 97.3 473.4 113.7 469.9 138.1 464 162.1 456.8 185.7 448.4 204.9 459.7 217 494 220.2 506.9 221.1 510.7 224.6 513.4 228.5 513.4L444.3 513.4C447 513.4 449.5 512.1 451.2 509.9 452.8 507.7 453.3 504.9 452.5 502.3 450.2 496.3 447 490.7 442.9 485.7 440.6 482.8 438.5 479.6 436.8 476.3 433 468.4 429.7 460.3 427.2 451.9 422.3 435.4 419 418.5 417.1 401.4 414.1 375.9 417.9 350 428.3 326.5 434.6 313.5 442.4 301.2 451.5 289.9 456.7 283 462 275.8 466.8 268.2 480.3 247.3 487.5 223 487.7 198.1 487.4 173.4 484.4 149 478 125.4ZM469.9 197.6C469.8 219.3 463.4 240.6 451.7 258.8 447.2 265.8 442.1 272.7 437.1 279.4 427.2 291.7 418.8 305.1 412 319.3 400.5 345.6 396.2 374.5 399.5 403.1 401.4 421.2 405 439.1 410.2 456.6 413 465.8 416.6 474.8 420.8 483.4 423 487.6 425.6 491.7 428.5 495.4 428.6 495.6 428.7 495.7 428.8 495.9L234.4 495.9C228.7 475.6 218.4 457 204.3 441.4 206.5 440.6 208.7 439.9 210.6 439.2 217 437 221.8 435.3 224.2 434.5 260.8 423 279.1 406.4 278.6 385.1 278.5 380.4 274.6 376.7 269.9 376.8 265.2 376.9 261.5 380.8 261.6 385.5 261.8 394.3 254.6 407.1 219.2 418.2 216.7 419 211.7 420.7 205.1 423.1 199 425.2 191.5 427.9 183.2 430.7L183.1 430.7C159.1 439.4 134.6 446.8 109.8 452.8 101.8 454.4 94 449.3 92.2 441.4 90.4 436.6 89.6 431.4 90.1 426.3 90.3 424.5 90.7 422.8 91.1 421 92.9 415.1 93.1 408.8 91.9 402.8 89.5 395 83.7 388.6 76.2 385.3 75.6 385 75 384.6 74.4 384.3 75.3 382.4 76.4 380.7 77.7 379 79.1 377.2 79.8 374.9 79.4 372.6 79.1 370.3 77.9 368.3 76 366.9 73.9 365.4 69.1 361.7 65.6 358.9 66 358.1 66.5 357.2 67 356.4 68.3 354.1 69.8 351.4 71.3 348.4 74 342.4 74.8 335.8 73.6 329.3 71.6 318.8 61.6 313.7 54.3 310 51.8 308.8 49.5 307.5 47.2 305.9 45.4 304.7 43.7 303.3 42.2 301.8 42.2 300.5 43.6 297.4 50.1 289.4 65.4 269.7 78.4 248.5 89.1 226 91.2 222.5 92.3 218.5 92.4 214.4 91.5 205.8 87 198 79.9 193 76.5 189.8 73.2 186.9 72.8 184.2 72.8 182.1 73.3 180.1 74.2 178.2 75.6 174.5 77.2 170.8 78.9 167.2 82.4 160 85.2 152.5 87.2 144.8L87.9 141.7C89.7 133 92.1 124.4 95 116 101.7 97.4 112.1 80.4 125.6 66 142.1 48.5 167.2 36.7 202.1 29.6 228.5 23.8 255.2 20 282.2 18.1 330.5 15.7 371.9 30.2 416.6 65.2 438.3 81.2 454.2 103.9 461.7 129.8 467.6 152.1 470.3 174.8 469.9 197.6Z" fill="#FFFFFF"/><path d="M433.4 139 415.7 139C413.7 132.3 411.1 125.9 407.7 119.8L420.2 107.3C423.1 104.4 423.5 99.8 421.2 96.4 413 84.6 402.8 74.4 391 66.2 387.6 63.8 383 64.2 380.1 67.2L367.6 79.7C361.5 76.4 355 73.7 348.4 71.7L348.4 54C348.4 49.9 345.4 46.3 341.4 45.6 327.3 43.1 312.8 43.1 298.7 45.6 294.6 46.3 291.7 49.9 291.7 54L291.7 71.7C285 73.7 278.6 76.3 272.5 79.7L260 67.2C257.1 64.3 252.5 63.9 249.1 66.2 237.3 74.4 227.1 84.6 218.9 96.4 216.5 99.8 216.9 104.4 219.9 107.3L232.4 119.8C229.1 125.9 226.4 132.4 224.4 139L206.7 139C202.6 139 199 142 198.3 146 195.8 160.1 195.8 174.6 198.3 188.7 199 192.8 202.6 195.7 206.7 195.7L224.4 195.7C226.4 202.4 229 208.8 232.4 214.9L219.9 227.4C217 230.3 216.6 234.9 218.9 238.3 227.1 250.1 237.3 260.3 249.1 268.5 252.5 270.9 257.1 270.5 260 267.5L272.5 255C278.6 258.3 285.1 261 291.7 263L291.7 280.7C291.7 284.8 294.7 288.4 298.7 289.1 312.8 291.6 327.3 291.6 341.4 289.1 345.5 288.4 348.4 284.8 348.4 280.7L348.4 263C355.1 261 361.5 258.4 367.6 255L380.1 267.5C383 270.4 387.6 270.8 391 268.5 402.8 260.3 413 250.1 421.2 238.3 423.6 234.9 423.2 230.3 420.2 227.4L407.8 215C411.1 208.9 413.8 202.4 415.8 195.8L433.5 195.8C437.6 195.8 441.2 192.8 441.9 188.8 444.4 174.7 444.4 160.2 441.9 146.1 441.1 142 437.6 139 433.4 139ZM426.1 178.7 409.2 178.7C405.2 178.7 401.7 181.5 400.9 185.4 398.9 194.8 395.2 203.7 390 211.7 387.8 215.1 388.3 219.5 391.1 222.3L403.1 234.3C398.4 240.2 393 245.6 387.1 250.3L375.1 238.3C372.3 235.5 367.8 235 364.5 237.2 356.4 242.4 347.5 246.1 338.1 248.1 334.2 249 331.4 252.4 331.4 256.4L331.4 273.3C323.9 274.1 316.3 274.1 308.8 273.3L308.8 256.4C308.8 252.4 306 248.9 302.1 248.1 292.7 246.1 283.8 242.4 275.7 237.2 272.3 235 267.9 235.5 265.1 238.3L253.1 250.3C247.2 245.6 241.8 240.2 237.1 234.3L249.1 222.3C251.9 219.5 252.4 215 250.2 211.7 245 203.6 241.3 194.7 239.3 185.4 238.4 181.5 235 178.7 231 178.7L214.1 178.7C213.3 171.2 213.3 163.6 214.1 156L214.1 156 231 156C235 156 238.5 153.2 239.3 149.3 241.3 139.9 245 131 250.2 123 252.4 119.6 251.9 115.2 249.1 112.4L237.1 100.4C241.8 94.5 247.2 89.1 253.1 84.4L265.1 96.4C267.9 99.2 272.4 99.7 275.7 97.6 283.8 92.4 292.7 88.7 302.1 86.7 306 85.8 308.8 82.4 308.8 78.4L308.8 61.3C316.3 60.5 323.9 60.5 331.4 61.3L331.4 78.2C331.4 82.2 334.2 85.7 338.1 86.5 347.5 88.5 356.4 92.2 364.5 97.4 367.9 99.6 372.3 99.1 375.1 96.2L387.1 84.2C393 88.9 398.4 94.3 403.1 100.2L391.1 112.2C388.3 115 387.8 119.5 390 122.8 395.2 130.9 398.9 139.8 400.9 149.1 401.8 153 405.2 155.8 409.2 155.8L426.1 155.8C426.9 163.6 426.9 171.2 426.1 178.7Z" fill="#FFFFFF"/><path d="M204.8 248.5 195 248.5C194.2 245.4 193 242.5 191.4 239.8L198.3 232.9C201.6 229.6 201.6 224.2 198.3 220.8 195 217.5 189.6 217.5 186.2 220.8L179.3 227.7C176.6 226.1 173.7 224.9 170.6 224.1L170.6 214.4C170.6 209.7 166.8 205.9 162.1 205.9 157.4 205.9 153.6 209.7 153.6 214.4L153.6 224.1C150.5 224.9 147.6 226.1 144.9 227.7L138 220.8C135.8 218.6 132.7 217.8 129.8 218.6 126.9 219.4 124.6 221.7 123.8 224.6 123 227.5 123.9 230.7 126 232.8L132.9 239.7C131.3 242.4 130.1 245.3 129.3 248.4L119.6 248.4C114.9 248.4 111.1 252.2 111.1 256.9 111.1 261.6 114.9 265.4 119.6 265.4L129.3 265.4C130.1 268.5 131.3 271.4 132.9 274.1L126 281C123.8 283.2 123 286.3 123.8 289.2 124.6 292.1 126.9 294.4 129.8 295.2 132.7 296 135.9 295.1 138 293L144.9 286.1C147.6 287.7 150.5 288.9 153.6 289.7L153.6 299.4C153.6 304.1 157.4 307.9 162.1 307.9 166.8 307.9 170.6 304.1 170.6 299.4L170.6 289.7C173.7 288.9 176.6 287.7 179.3 286.1L186.2 293C189.5 296.3 194.9 296.3 198.3 293 201.6 289.7 201.6 284.3 198.3 280.9L191.4 274C193 271.3 194.2 268.4 195 265.3L204.7 265.3C209.4 265.3 213.2 261.5 213.2 256.8 213.2 252.1 209.5 248.5 204.8 248.5ZM162.1 274.1C152.7 274.1 145 266.5 145 257 145 247.5 152.6 239.9 162.1 239.9 171.6 239.9 179.2 247.5 179.2 257 179.2 266.4 171.5 274.1 162.1 274.1Z" fill="#FFFFFF"/><path d="M117.5 163.1C118 164.8 118.7 166.5 119.6 168.1L115 172.7C112.8 174.9 112 178 112.8 180.9 113.6 183.8 115.9 186.1 118.8 186.9 121.7 187.7 124.9 186.8 127 184.7L131.6 180.1C133.2 180.9 134.8 181.6 136.5 182.1L136.5 188.6C136.5 193.3 140.3 197.1 145 197.1 149.7 197.1 153.5 193.3 153.5 188.6L153.5 182.1C155.2 181.6 156.9 180.9 158.4 180.1L163 184.7C166.3 188 171.7 188 175.1 184.7 178.5 181.4 178.4 176 175.1 172.6L170.5 168C171.3 166.4 172 164.8 172.6 163L179.1 163C183.8 163 187.6 159.2 187.6 154.5 187.6 149.8 183.8 146 179.1 146L172.6 146C172.1 144.3 171.4 142.6 170.5 141L175.1 136.4C177.3 134.2 178.1 131.1 177.3 128.2 176.5 125.3 174.2 123 171.3 122.2 168.4 121.4 165.2 122.3 163.1 124.4L158.5 129C156.9 128.2 155.3 127.5 153.6 127L153.6 120.5C153.6 115.8 149.8 112 145.1 112 140.4 112 136.6 115.8 136.6 120.5L136.6 127.1C134.9 127.6 133.2 128.3 131.7 129.1L127.1 124.5C123.8 121.2 118.4 121.2 115 124.5 111.7 127.8 111.7 133.2 115 136.6L119.6 141.2C118.8 142.8 118.1 144.4 117.5 146.2L111 146.2C106.3 146.2 102.5 150 102.5 154.7 102.5 159.4 106.3 163.2 111 163.2L117.5 163.1 117.5 163.1ZM142 143.1C147.2 141.7 152.7 144 155.4 148.7 158.1 153.4 157.3 159.3 153.5 163.1 150.1 166.5 144.9 167.5 140.5 165.7 136 163.9 133.1 159.5 133.1 154.7 133.1 149.2 136.7 144.5 142 143.1Z" fill="#FFFFFF"/><path d="M320 111.9C289.4 111.9 264.5 136.7 264.5 167.4 264.5 198 289.3 222.8 320 222.9 350.6 222.9 375.5 198.1 375.5 167.4 375.5 136.7 350.6 111.9 320 111.9ZM320 205.8C298.8 205.8 281.6 188.6 281.6 167.4 281.6 146.2 298.8 129 320 129 341.2 129 358.4 146.2 358.4 167.4 358.4 188.6 341.2 205.8 320 205.8Z" fill="#FFFFFF"/></g></g></g></svg>