<svg viewBox="0 0 238.59 321.91" xmlns="http://www.w3.org/2000/svg" xmlns:xlink="http://www.w3.org/1999/xlink" id="Capa_1" overflow="hidden"><defs></defs><path d="M211.2 228.45 183.2 228.45 183.2 218.39C183.278 213.267 179.193 209.048 174.07 208.96L145.07 208.96C140.07 194.23 124.39 186.51 110.12 191.71 102.246 194.667 96.1279 201.02 93.47 209L63.91 209C58.7869 209.088 54.702 213.307 54.78 218.43L54.78 228.49 27.39 228.49C12.27 228.47 0 241.13 0 256.74L0 483.74C0 499.33 12.27 512 27.39 512L211.2 512C226.32 512 238.58 499.33 238.59 483.71L238.59 256.71C238.58 241.13 226.32 228.47 211.2 228.45ZM73 227.82 101 227.82C106.125 227.738 110.212 223.517 110.13 218.392 110.13 218.392 110.13 218.391 110.13 218.39 110.13 213.348 114.218 209.26 119.26 209.26 124.302 209.26 128.39 213.348 128.39 218.39 128.307 223.515 132.393 227.736 137.518 227.82 137.518 227.82 137.519 227.82 137.52 227.82L165 227.82 165 237.88C165.083 243.005 160.997 247.226 155.872 247.31 155.872 247.31 155.871 247.31 155.87 247.31L82.17 247.31C77.0452 247.25 72.9393 243.047 72.9994 237.922 72.9996 237.908 72.9998 237.894 73 237.88L73 237.88ZM220.33 483.71C220.413 488.835 216.327 493.056 211.202 493.14 211.202 493.14 211.201 493.14 211.2 493.14L27.39 493.14C22.2655 493.058 18.1778 488.837 18.26 483.712 18.26 483.712 18.26 483.711 18.26 483.71L18.26 256.71C18.182 251.587 22.2669 247.368 27.39 247.28L56.39 247.28C60.0812 258.44 70.4557 266.022 82.21 266.15L155.86 266.15C167.613 266.024 177.985 258.441 181.67 247.28L211.2 247.28C216.325 247.362 220.412 251.583 220.33 256.708 220.33 256.708 220.33 256.709 220.33 256.71L220.33 256.71Z" fill="#FFFFFF" transform="matrix(1 0 0 1 0 -190.09)"/><path d="M107.54 353.87C104.163 350.276 98.5112 350.1 94.9172 353.478 94.8193 353.57 94.7236 353.664 94.63 353.76L64 384.93 52.11 372.67C48.6969 369.102 43.0378 368.977 39.47 372.39 39.3746 372.481 39.2813 372.575 39.19 372.67 35.6217 376.401 35.6217 382.279 39.19 386.01L57.45 404.87C60.8426 408.434 66.4824 408.574 70.0468 405.181 70.1363 405.096 70.2241 405.009 70.31 404.92L107.44 367.2C111.035 363.499 111.079 357.624 107.54 353.87Z" fill="#FFFFFF" transform="matrix(1 0 0 1 0 -190.09)"/><path d="M107.54 419.88C104.163 416.286 98.5112 416.11 94.9172 419.488 94.8193 419.58 94.7236 419.674 94.63 419.77L64 450.94 52.11 438.69C48.7129 435.122 43.0668 434.984 39.499 438.381 39.3935 438.481 39.2905 438.585 39.19 438.69 35.6217 442.421 35.6217 448.299 39.19 452.03L57.45 470.89C60.8585 474.454 66.5113 474.581 70.0758 471.172 70.1553 471.096 70.2334 471.019 70.31 470.94L107.44 433.22C111.031 429.514 111.075 423.64 107.54 419.88Z" fill="#FFFFFF" transform="matrix(1 0 0 1 0 -190.09)"/><path d="M88.63 325.52 76.82 313.33 88.63 301.14C92.1881 297.405 92.1881 291.535 88.63 287.8 85.2329 284.232 79.5868 284.094 76.019 287.491 75.9135 287.591 75.8105 287.695 75.71 287.8L63.91 300 52.11 287.8C48.7129 284.232 43.0668 284.094 39.499 287.491 39.3935 287.591 39.2905 287.694 39.19 287.8 35.6217 291.531 35.6217 297.409 39.19 301.14L51 313.33 39.19 325.52C35.6217 329.251 35.6217 335.129 39.19 338.86 42.6031 342.428 48.2622 342.553 51.83 339.14 51.9254 339.049 52.0187 338.955 52.11 338.86L63.91 326.66 75.71 338.86C79.1231 342.428 84.7822 342.553 88.35 339.14 88.4454 339.049 88.5387 338.955 88.63 338.86 92.1881 335.125 92.1881 329.255 88.63 325.52Z" fill="#FFFFFF" transform="matrix(1 0 0 1 0 -190.09)"/><path d="M192.94 303.9 137.56 303.9C132.352 303.9 128.13 308.122 128.13 313.33 128.13 318.538 132.352 322.76 137.56 322.76L192.94 322.76C198.148 322.76 202.37 318.538 202.37 313.33 202.37 308.122 198.148 303.9 192.94 303.9Z" fill="#FFFFFF" transform="matrix(1 0 0 1 0 -190.09)"/><path d="M192.94 369.91 137.56 369.91C132.352 369.91 128.13 374.132 128.13 379.34 128.13 384.548 132.352 388.77 137.56 388.77L192.94 388.77C198.148 388.77 202.37 384.548 202.37 379.34 202.37 374.132 198.148 369.91 192.94 369.91Z" fill="#FFFFFF" transform="matrix(1 0 0 1 0 -190.09)"/><path d="M192.94 435.93 137.56 435.93C132.352 435.93 128.13 440.152 128.13 445.36 128.13 450.568 132.352 454.79 137.56 454.79L192.94 454.79C198.148 454.79 202.37 450.568 202.37 445.36 202.37 440.152 198.148 435.93 192.94 435.93Z" fill="#FFFFFF" transform="matrix(1 0 0 1 0 -190.09)"/></svg>